<?xml version="1.0" encoding="UTF-8" standalone="no"?>
<!-- Creator: CorelDRAW X7 -->

<svg
   xmlns:dc="http://purl.org/dc/elements/1.1/"
   xmlns:cc="http://creativecommons.org/ns#"
   xmlns:rdf="http://www.w3.org/1999/02/22-rdf-syntax-ns#"
   xmlns:svg="http://www.w3.org/2000/svg"
   xmlns="http://www.w3.org/2000/svg"
   xmlns:sodipodi="http://sodipodi.sourceforge.net/DTD/sodipodi-0.dtd"
   xmlns:inkscape="http://www.inkscape.org/namespaces/inkscape"
   xml:space="preserve"
   width="512"
   height="512"
   version="1.1"
   style="clip-rule:evenodd;fill-rule:evenodd;image-rendering:optimizeQuality;shape-rendering:geometricPrecision;text-rendering:geometricPrecision"
   viewBox="0 0 53333.332 53333.334"
   id="svg443"
   sodipodi:docname="filemanager.svg"
   inkscape:version="0.92.4 (33fec40, 2019-01-16)"><metadata
   id="metadata447"><rdf:RDF><cc:Work
       rdf:about=""><dc:format>image/svg+xml</dc:format><dc:type
         rdf:resource="http://purl.org/dc/dcmitype/StillImage" /><dc:title></dc:title></cc:Work></rdf:RDF></metadata><sodipodi:namedview
   pagecolor="#ffffff"
   bordercolor="#666666"
   borderopacity="1"
   objecttolerance="10"
   gridtolerance="10"
   guidetolerance="10"
   inkscape:pageopacity="0"
   inkscape:pageshadow="2"
   inkscape:window-width="1324"
   inkscape:window-height="704"
   id="namedview445"
   showgrid="false"
   inkscape:zoom="0.89503786"
   inkscape:cx="271.74761"
   inkscape:cy="286.21283"
   inkscape:window-x="1322"
   inkscape:window-y="283"
   inkscape:window-maximized="1"
   inkscape:current-layer="_2463001320816"
   units="px" />
 <defs
   id="defs4">
  <style
   type="text/css"
   id="style2">
   <![CDATA[
    .fil23 {fill:#536896}
    .fil24 {fill:#7B93C9}
    .fil19 {fill:#8480BC}
    .fil16 {fill:#9F9CCB}
    .fil25 {fill:#AFBEE1}
    .fil14 {fill:#BBB8DA}
    .fil21 {fill:#BFA36F}
    .fil18 {fill:#D2AE6D}
    .fil20 {fill:#D7B67C}
    .fil26 {fill:#D7BF93}
    .fil27 {fill:#E2CBA3}
    .fil12 {fill:#E4CFA9}
    .fil28 {fill:#E7D5B4}
    .fil15 {fill:#E9EDF7}
    .fil13 {fill:#EDDFC4}
    .fil0 {fill:#F7F1E5}
    .fil22 {fill:#F9FAFC}
    .fil10 {fill:#7B93C9;fill-rule:nonzero}
    .fil2 {fill:#8480BC;fill-rule:nonzero}
    .fil9 {fill:#9DB0D9;fill-rule:nonzero}
    .fil3 {fill:#9F9CCB;fill-rule:nonzero}
    .fil5 {fill:#A38755;fill-rule:nonzero}
    .fil11 {fill:#AFBEE1;fill-rule:nonzero}
    .fil1 {fill:#BBB8DA;fill-rule:nonzero}
    .fil6 {fill:#D2AE6D;fill-rule:nonzero}
    .fil4 {fill:#D7B67C;fill-rule:nonzero}
    .fil7 {fill:#DFC596;fill-rule:nonzero}
    .fil33 {fill:#E0C99F;fill-rule:nonzero}
    .fil30 {fill:#E4CFAA;fill-rule:nonzero}
    .fil34 {fill:#E9EDF7;fill-rule:nonzero}
    .fil29 {fill:#EBDBBE;fill-rule:nonzero}
    .fil32 {fill:#EDDFC4;fill-rule:nonzero}
    .fil8 {fill:#EFF2FA;fill-rule:nonzero}
    .fil31 {fill:#F2E8D4;fill-rule:nonzero}
    .fil17 {fill:#F9FAFC;fill-rule:nonzero}
   ]]>
  </style>
 </defs>
 <g
   id="Layer_x0020_1"
   transform="translate(0,-56531.664)">
  <metadata
   id="CorelCorpID_0Corel-Layer" />
  <g
   id="_2463001320816">
   
   
   
   
   
   
   
   
   
   
   
   <g
   id="g1435"
   style="opacity:0.5"
   transform="matrix(0.35310464,0,0,0.35310464,3333.3629,56531.664)"><path
     id="path7"
     d="m 113421,85232 c 8676,3004 18589,3112 28180,579 v 8733 6538 c -8355,3904 -18426,7364 -27602,8452 -18980,2251 -29421,-7047 -30786,-25747 -208,-2853 -200,-5752 -71,-8602 21,-446 39,-885 56,-1317 2687,416 5530,455 8467,182 1620,-150 3270,-396 4938,-725 2385,3103 5268,5763 8598,7921 2496,1618 5243,2955 8220,3986 z"
     class="fil0"
     style="fill:#f7f1e5"
     inkscape:connector-curvature="0" /><g
     id="g85">
    <path
   id="path79"
   d="m 141601,15652 c -3419,817 -7649,2848 -13371,6509 -2009,1285 -4200,2770 -6605,4474 -12191,8635 -27091,10987 -38883,6130 -960,-395 -1888,-833 -2784,-1311 C 68130,25136 65588,11838 62398,0 H 7653 c -11115,12048 -10347,27794 3776,33043 17209,1518 22875,-6109 35814,-9479 8294,-2160 14147,1260 18057,14840 4475,15539 12996,25748 24854,28625 22414,5439 36633,-10407 51447,-21147 z"
   class="fil12"
   style="fill:#e4cfa9"
   inkscape:connector-curvature="0" />
    <path
   id="path81"
   d="M 141601,15652 V 0 H 62398 c 4013,14894 3440,26523 20097,33381 11793,4858 26939,1889 39130,-6746 5603,-3970 13461,-9427 19976,-10983 z"
   class="fil13"
   style="fill:#eddfc4"
   inkscape:connector-curvature="0" />
    <path
   id="path83"
   d="m 141601,36270 c -3757,2255 -8345,5917 -14328,11441 -3700,3415 -7799,6165 -12083,8186 -8426,3975 -17563,5128 -25761,2969 -2594,-683 -5020,-1672 -7258,-2947 C 75005,51837 69764,44824 67095,35555 64204,25517 60262,19634 55044,17567 c -1670,-661 -3438,-908 -5278,-836 -12949,512 -17943,15670 -38337,16312 15077,5605 35867,-4286 45888,1735 6933,4166 5573,12317 5919,20954 198,4965 1399,9354 3390,13029 14297,26387 56577,3465 74975,-12452 z"
   class="fil13"
   style="fill:#eddfc4"
   inkscape:connector-curvature="0" />
   </g><g
     id="g105">
    <g
   id="g91">
     <path
   id="path87"
   d="m 130259,36684 v 6 5 c 0,119 -7,233 -13,346 v 0 l -114,-64 c -3,55 -3,110 -7,164 v 0 l -113,-64 c -3,54 -4,110 -7,164 v 0 l -114,-64 c -2,54 -3,110 -6,163 v 0 l -114,-64 c -2,55 -3,110 -6,164 v 0 l -114,-64 c -2,54 -3,110 -6,164 v 0 l -114,-64 c -3,54 -3,110 -7,163 v 0 l -114,-63 c -2,54 -3,109 -6,163 v 0 l -114,-64 c -2,54 -3,110 -6,164 v 0 l -114,-64 c -2,54 -3,110 -6,164 v 0 l -17201,-9638 c -8,-124 -14,-249 -14,-372 v 0 c 0,-1175 359,-2037 937,-2477 v 0 c 38,-35 79,-68 120,-99 v 0 c 39,-36 79,-69 120,-100 v 0 c 39,-36 79,-68 120,-100 v 0 c 39,-35 80,-68 121,-99 v 0 c 38,-36 79,-69 120,-100 v 0 c 38,-35 79,-68 120,-100 v 0 c 39,-35 79,-68 120,-100 v 0 c 39,-35 79,-68 120,-99 v 0 c 557,-509 1351,-587 2236,-121 v 0 c 241,-530 561,-951 945,-1254 v 0 c 39,-34 79,-67 120,-99 v 0 c 39,-35 79,-68 120,-100 v 0 c 39,-34 79,-67 120,-99 v 0 c 39,-35 80,-68 120,-100 v 0 c 40,-35 80,-68 121,-100 v 0 c 39,-34 79,-67 120,-99 v 0 c 39,-35 79,-68 120,-100 v 0 c 39,-35 80,-68 120,-100 v 0 c 477,-422 1061,-647 1718,-647 v 0 c 583,0 1224,178 1896,554 v 0 c 2234,1252 4120,4305 4727,7382 v 0 c 131,54 264,116 399,191 v 0 c 1950,1093 3530,4102 3530,6721 z"
   class="fil14"
   style="fill:#bbb8da"
   inkscape:connector-curvature="0" />
     <path
   id="path89"
   d="m 120521,23287 c 2234,1252 4120,4306 4727,7382 131,54 264,116 399,192 1950,1092 3530,4101 3530,6720 0,67 -2,131 -4,195 l -3,-1 c -2,52 -3,106 -6,158 0,1 0,2 0,3 0,1 0,2 0,2 l -17201,-9636 c -8,-125 -14,-250 -14,-373 0,-1175 358,-2037 937,-2477 2,-1 4,-3 6,-5 565,-426 1338,-451 2192,27 206,115 407,257 602,417 83,-508 218,-963 397,-1357 241,-529 561,-951 945,-1254 5,-4 11,-9 16,-14 892,-691 2120,-739 3477,21 z"
   class="fil15"
   style="fill:#e9edf7"
   inkscape:connector-curvature="0" />
    </g>
    <g
   id="g97">
     <path
   id="path93"
   d="m 105668,14340 v -11 c 0,-726 222,-1259 580,-1532 v 0 c 24,-22 48,-42 74,-61 v 0 c 24,-22 49,-43 75,-62 v 0 c 23,-22 48,-42 74,-62 v 0 c 24,-22 49,-42 74,-61 v 0 c 24,-22 49,-43 75,-62 v 0 c 24,-22 49,-42 74,-62 v 0 c 24,-22 49,-42 74,-61 v 0 c 24,-22 49,-43 75,-62 v 0 c 344,-315 835,-363 1383,-75 v 0 c 149,-327 347,-588 584,-775 v 0 c 25,-22 49,-42 74,-62 v 0 c 25,-21 50,-42 75,-62 v 0 c 24,-21 49,-41 74,-61 v 0 c 24,-22 50,-42 75,-62 v 0 c 24,-21 49,-42 74,-61 v 0 c 24,-22 49,-42 74,-62 v 0 c 25,-22 50,-42 75,-62 v 0 c 24,-21 49,-42 74,-61 v 0 c 295,-262 657,-401 1063,-401 361,0 757,110 1173,343 v 0 c 1382,774 2549,2663 2924,4567 v 0 c 81,33 164,72 248,118 v 0 c 1206,676 2184,2538 2184,4158 v 0 c 0,76 -5,149 -9,222 v 0 l -70,-40 c -2,33 -2,68 -4,101 v 0 l -71,-40 c -1,34 -2,69 -4,102 v 0 l -70,-40 c -2,34 -2,68 -4,101 v 0 l -71,-39 c -1,33 -2,68 -3,101 v 0 l -71,-39 c -1,33 -2,68 -4,101 v 0 l -70,-40 c -2,34 -2,68 -4,101 v 0 l -71,-39 c -1,33 -2,68 -4,101 v 0 l -70,-39 c -2,33 -2,68 -4,101 v 0 l -70,-40 c -2,34 -2,68 -4,102 v 0 l -10642,-5963 c -5,-74 -8,-147 -9,-220 z"
   class="fil16"
   style="fill:#9f9ccb"
   inkscape:connector-curvature="0" />
     <path
   id="path95"
   d="m 116319,20522 c 4,-72 8,-144 8,-221 0,-1620 -978,-3482 -2184,-4158 -84,-46 -166,-85 -247,-118 -375,-1904 -1542,-3792 -2925,-4567 -1478,-828 -2710,-107 -2991,1611 -121,-99 -245,-187 -372,-258 -1072,-600 -1940,80 -1940,1518 0,77 4,154 9,231 z"
   class="fil17"
   style="fill:#f9fafc;fill-rule:nonzero"
   inkscape:connector-curvature="0" />
    </g>
    <g
   id="g103">
     <path
   id="path99"
   d="m 126848,11155 v -6 c 0,-452 138,-782 360,-951 v 0 c 15,-14 30,-27 46,-39 v 0 c 15,-13 30,-26 46,-38 v 0 c 15,-14 31,-26 46,-38 v 0 c 15,-14 31,-26 47,-39 v 0 c 15,-13 30,-26 46,-38 v 0 c 15,-13 30,-26 46,-38 v 0 c 15,-14 30,-26 46,-38 v 0 c 15,-14 30,-27 46,-39 v 0 c 214,-195 519,-225 859,-46 v 0 c 92,-203 215,-365 363,-481 v 0 c 15,-14 30,-26 46,-39 v 0 c 15,-13 30,-26 46,-38 v 0 c 15,-13 31,-26 46,-38 v 0 c 15,-14 31,-26 47,-39 v 0 c 15,-13 30,-25 46,-38 v 0 c 15,-13 30,-26 46,-38 v 0 c 15,-14 30,-26 46,-39 v 0 c 15,-13 31,-26 46,-38 v 0 c 183,-162 408,-248 660,-248 224,0 470,68 728,213 v 0 c 858,480 1583,1653 1816,2835 v 0 c 50,20 101,44 153,73 v 0 c 749,420 1356,1576 1356,2582 v 0 c 0,47 -2,92 -5,137 v 0 l -44,-25 c -1,21 -1,43 -2,63 v 0 l -44,-24 c -1,21 -1,42 -2,63 v 0 l -44,-25 c -1,21 -1,42 -3,63 v 0 l -43,-25 c -1,21 -2,43 -3,63 v 0 l -44,-24 c -1,21 -1,42 -2,62 v 0 l -44,-24 c -1,21 -1,42 -2,63 v 0 l -44,-25 c -1,21 -1,42 -2,63 v 0 l -44,-24 c -1,20 -1,42 -3,62 v 0 l -43,-24 c -1,21 -2,42 -3,63 v 0 l -6606,-3702 c -3,-46 -6,-91 -6,-137 z"
   class="fil14"
   style="fill:#bbb8da"
   inkscape:connector-curvature="0" />
     <path
   id="path101"
   d="m 133460,14994 c 3,-45 6,-90 6,-138 0,-1006 -608,-2161 -1356,-2581 -52,-29 -103,-53 -154,-74 -233,-1181 -957,-2354 -1815,-2835 -918,-514 -1683,-66 -1858,1000 -75,-61 -152,-116 -231,-160 -665,-372 -1204,50 -1204,943 0,47 3,95 5,143 z"
   class="fil17"
   style="fill:#f9fafc;fill-rule:nonzero"
   inkscape:connector-curvature="0" />
    </g>
   </g><g
     id="g399">
    <g
   id="g169">
     <path
   id="path107"
   d="m 61388,44365 c -325,187 -325,491 -4,678 160,93 371,139 582,139 158,0 316,-26 454,-78 47,-18 91,-38 133,-62 2,-1 4,-3 6,-4 317,-186 317,-487 -2,-672 -321,-187 -846,-188 -1169,-1 z m 584,-208 c 242,0 485,53 669,160 365,212 363,557 1,770 -2,1 -4,2 -6,3 -41,24 -85,45 -132,64 -369,147 -878,127 -1204,-63 -367,-213 -365,-561 4,-775 184,-106 426,-159 668,-159 z"
   class="fil18"
   style="fill:#d2ae6d"
   inkscape:connector-curvature="0" />
     <path
   id="path109"
   d="m 61179,44243 c -439,254 -441,667 -5,921 218,126 504,189 791,189 234,0 468,-42 666,-126 45,-19 89,-40 130,-64 2,-1 4,-2 5,-3 433,-254 434,-664 0,-916 -436,-253 -1149,-253 -1587,-1 z m 1537,1034 c -488,214 -1185,191 -1626,-65 -483,-281 -480,-736 6,-1017 242,-140 560,-210 877,-210 318,0 636,70 877,211 480,279 481,733 1,1013 -2,1 -3,2 -5,3 -41,24 -85,46 -130,65 z"
   class="fil18"
   style="fill:#d2ae6d"
   inkscape:connector-curvature="0" />
     <path
   id="path111"
   d="m 61000,44140 c -540,312 -543,819 -8,1130 268,156 621,234 974,234 300,0 600,-56 850,-169 44,-20 88,-42 129,-66 1,0 3,-1 5,-2 534,-312 535,-817 1,-1127 -535,-312 -1412,-312 -1951,0 z m 1899,1244 c -590,271 -1450,249 -1990,-65 -582,-338 -579,-889 8,-1228 293,-169 677,-253 1061,-253 383,0 766,84 1057,253 580,337 579,886 -2,1224 -2,1 -3,2 -5,3 -41,24 -84,46 -129,66 z"
   class="fil18"
   style="fill:#d2ae6d"
   inkscape:connector-curvature="0" />
     <path
   id="path113"
   d="m 59179,45502 c 133,0 267,-25 379,-75 20,-9 40,-19 58,-30 25,-14 46,-29 66,-44 173,-140 152,-335 -63,-460 -240,-139 -631,-140 -872,-1 -242,140 -242,367 -3,506 120,70 277,104 435,104 z m 503,-645 c 249,145 269,373 63,532 -20,16 -42,31 -67,45 -18,10 -38,20 -58,30 -277,128 -683,119 -938,-30 -274,-159 -273,-419 3,-578 137,-79 317,-119 498,-119 181,0 362,40 499,120 z"
   class="fil18"
   style="fill:#d2ae6d"
   inkscape:connector-curvature="0" />
     <path
   id="path115"
   d="m 59178,45630 c 190,0 381,-37 536,-112 20,-9 39,-19 58,-30 24,-14 46,-29 67,-44 258,-190 237,-467 -64,-641 -325,-190 -857,-190 -1183,-1 -328,189 -330,497 -4,686 162,95 376,142 590,142 z m 599,-75 c -365,178 -911,168 -1252,-30 -360,-210 -359,-550 4,-759 181,-104 418,-157 655,-157 237,0 474,53 654,157 335,195 357,505 64,715 -20,15 -43,30 -67,44 -19,10 -38,21 -58,30 z"
   class="fil18"
   style="fill:#d2ae6d"
   inkscape:connector-curvature="0" />
     <path
   id="path117"
   d="m 59178,45742 c 240,0 480,-48 673,-144 20,-10 39,-20 58,-31 24,-13 46,-28 67,-43 334,-233 313,-581 -63,-800 -399,-232 -1053,-232 -1455,0 -403,233 -405,612 -6,844 200,116 463,174 726,174 z m 736,-108 c -441,222 -1109,212 -1524,-30 -435,-252 -432,-663 6,-916 218,-126 505,-189 791,-189 286,0 572,63 789,189 410,239 431,619 63,873 -21,14 -44,29 -68,43 -19,10 -38,21 -57,30 z"
   class="fil18"
   style="fill:#d2ae6d"
   inkscape:connector-curvature="0" />
     <path
   id="path119"
   d="m 61824,48345 c 25,-14 47,-30 67,-46 171,-139 150,-333 -65,-458 -239,-139 -631,-140 -872,-1 -242,140 -242,367 -3,506 120,70 277,104 435,104 135,0 269,-25 381,-76 20,-9 39,-18 57,-29 z m -932,-541 c 137,-79 318,-119 498,-119 181,0 362,40 499,120 249,145 270,372 65,531 -21,16 -43,31 -68,45 -18,11 -37,21 -56,30 -278,129 -685,120 -941,-29 -274,-159 -273,-419 3,-578 z"
   class="fil18"
   style="fill:#d2ae6d"
   inkscape:connector-curvature="0" />
     <path
   id="path121"
   d="m 62048,48391 c 256,-190 235,-466 -65,-640 -326,-190 -857,-190 -1184,-1 -328,189 -330,497 -4,686 162,95 376,142 590,142 191,0 382,-38 538,-113 19,-9 38,-19 56,-29 25,-15 48,-30 69,-45 z m -2,-677 c 334,195 356,504 65,714 -21,15 -44,30 -69,45 -18,10 -36,20 -56,29 -365,179 -912,169 -1254,-29 -360,-210 -358,-550 5,-759 180,-105 417,-157 654,-157 237,0 474,53 655,157 z"
   class="fil18"
   style="fill:#d2ae6d"
   inkscape:connector-curvature="0" />
     <path
   id="path123"
   d="m 62185,48471 c 332,-233 311,-581 -64,-799 -400,-232 -1054,-232 -1456,0 -403,233 -405,612 -6,844 200,116 463,174 727,174 240,0 481,-48 674,-145 19,-9 38,-19 56,-30 25,-14 48,-28 69,-44 z m -1,-835 c 409,238 430,618 64,872 -22,15 -45,29 -70,44 -18,10 -37,20 -56,30 -440,222 -1109,212 -1525,-30 -434,-252 -432,-663 6,-916 219,-126 505,-189 791,-189 287,0 572,63 790,189 z"
   class="fil18"
   style="fill:#d2ae6d"
   inkscape:connector-curvature="0" />
     <path
   id="path125"
   d="m 69933,62916 c 265,0 530,-59 733,-176 348,-201 398,-510 149,-741 l 105,-64 c 308,266 256,631 -149,865 -463,267 -1212,268 -1671,1 -459,-266 -457,-702 5,-969 230,-132 533,-199 835,-199 280,0 559,57 781,171 l -102,62 c -404,-205 -1022,-196 -1409,27 -406,234 -407,615 -5,848 200,116 464,175 728,175 z"
   class="fil18"
   style="fill:#d2ae6d"
   inkscape:connector-curvature="0" />
     <path
   id="path127"
   d="m 69932,63129 c 359,0 720,-79 995,-238 495,-285 545,-734 149,-1051 l 104,-63 c 456,351 407,856 -147,1176 -608,351 -1593,350 -2195,0 -604,-351 -601,-921 7,-1272 303,-175 700,-262 1096,-262 371,0 742,76 1035,229 l -102,62 c -549,-284 -1397,-273 -1925,32 -550,317 -553,833 -6,1150 271,158 630,237 989,237 z"
   class="fil18"
   style="fill:#d2ae6d"
   inkscape:connector-curvature="0" />
     <path
   id="path129"
   d="m 69933,63318 c 442,0 885,-98 1224,-293 624,-361 673,-932 145,-1323 l 103,-63 c 588,426 539,1052 -144,1446 -734,424 -1923,424 -2651,1 -727,-422 -723,-1111 11,-1535 366,-211 846,-317 1326,-317 449,0 898,93 1252,278 l -102,62 c -674,-351 -1720,-339 -2372,38 -676,390 -679,1025 -10,1414 335,194 776,292 1218,292 z"
   class="fil18"
   style="fill:#d2ae6d"
   inkscape:connector-curvature="0" />
     <path
   id="path131"
   d="m 70345,59563 c -462,267 -1211,268 -1671,1 -459,-267 -457,-702 6,-969 230,-133 532,-199 834,-199 273,0 546,54 765,162 l -106,60 c -404,-194 -1008,-182 -1389,37 -406,235 -406,615 -5,848 201,117 464,175 728,175 265,0 531,-59 734,-176 355,-205 400,-522 133,-754 l 107,-62 c 323,267 276,639 -136,877 z"
   class="fil18"
   style="fill:#d2ae6d"
   inkscape:connector-curvature="0" />
     <path
   id="path133"
   d="m 69506,59892 c 360,0 720,-80 995,-238 499,-289 546,-742 139,-1060 l 107,-61 c 464,352 418,861 -139,1182 -609,351 -1594,350 -2196,0 -604,-351 -601,-921 7,-1271 303,-175 700,-263 1097,-263 367,0 734,75 1026,225 l -105,61 c -550,-279 -1389,-266 -1914,37 -549,317 -552,833 -6,1151 272,158 630,237 989,237 z"
   class="fil18"
   style="fill:#d2ae6d"
   inkscape:connector-curvature="0" />
     <path
   id="path135"
   d="m 69507,60080 c 443,0 886,-98 1224,-293 626,-361 674,-934 141,-1326 l 106,-61 c 590,426 541,1052 -143,1448 -734,423 -1923,423 -2650,1 -728,-423 -724,-1112 10,-1536 366,-211 847,-317 1326,-317 449,0 897,93 1251,278 l -105,60 c -674,-349 -1717,-335 -2368,40 -675,390 -679,1025 -9,1414 334,195 775,292 1217,292 z"
   class="fil18"
   style="fill:#d2ae6d"
   inkscape:connector-curvature="0" />
     <path
   id="path137"
   d="m 89000,66537 c 331,192 872,192 1207,-1 308,-178 333,-459 74,-653 l 87,-50 c 307,222 280,548 -75,753 -382,220 -1001,221 -1380,1 -379,-221 -377,-580 4,-801 356,-205 922,-218 1304,-39 l -87,51 c -334,-152 -821,-140 -1130,38 -336,194 -336,508 -4,701 z"
   class="fil18"
   style="fill:#d2ae6d"
   inkscape:connector-curvature="0" />
     <path
   id="path139"
   d="m 88783,66662 c 450,261 1185,261 1639,-1 427,-247 453,-640 77,-903 l 87,-51 c 424,291 399,730 -76,1005 -502,290 -1316,289 -1814,0 -499,-290 -496,-761 6,-1051 476,-275 1235,-288 1737,-39 l -87,50 c -454,-221 -1136,-208 -1564,39 -454,262 -456,689 -5,951 z"
   class="fil18"
   style="fill:#d2ae6d"
   inkscape:connector-curvature="0" />
     <path
   id="path141"
   d="m 88595,66772 c 553,321 1459,321 2017,-1 532,-307 558,-800 77,-1123 l 87,-50 c 529,351 502,888 -78,1223 -607,350 -1588,350 -2189,1 -601,-349 -598,-918 8,-1268 580,-335 1507,-349 2111,-42 l -86,50 c -557,-279 -1407,-265 -1939,42 -558,322 -561,846 -8,1168 z"
   class="fil18"
   style="fill:#d2ae6d"
   inkscape:connector-curvature="0" />
     <path
   id="path143"
   d="m 88861,71803 c 632,-365 675,-946 126,-1338 l 105,-61 c 607,426 564,1061 -127,1459 -734,424 -1923,424 -2650,1 -728,-422 -724,-1111 11,-1535 724,-418 1895,-423 2625,-13 l -105,60 c -672,-375 -1750,-371 -2416,14 -676,390 -680,1025 -10,1414 669,389 1765,389 2441,-1 z"
   class="fil18"
   style="fill:#d2ae6d"
   inkscape:connector-curvature="0" />
     <path
   id="path145"
   d="m 88862,70538 c 480,352 439,868 -124,1193 -608,351 -1594,350 -2196,0 -604,-351 -601,-921 7,-1272 599,-346 1567,-350 2173,-11 l -105,61 c -547,-305 -1423,-302 -1963,11 -550,317 -553,833 -7,1150 544,317 1435,317 1985,-1 504,-291 546,-752 125,-1070 z"
   class="fil18"
   style="fill:#d2ae6d"
   inkscape:connector-curvature="0" />
     <path
   id="path147"
   d="m 88598,70691 c 337,268 294,647 -123,887 -462,267 -1211,268 -1671,2 -459,-267 -456,-703 6,-969 454,-262 1190,-266 1650,-11 l -104,61 c -403,-222 -1045,-219 -1442,10 -406,234 -406,615 -5,848 402,233 1056,233 1462,-1 360,-208 401,-532 121,-765 z"
   class="fil18"
   style="fill:#d2ae6d"
   inkscape:connector-curvature="0" />
     <path
   id="path149"
   d="m 102022,72975 c 402,234 1056,234 1462,-1 404,-233 406,-612 5,-845 -359,-209 -922,-232 -1326,-68 l -106,-61 c 462,-197 1120,-174 1537,68 459,267 455,701 -6,967 -462,267 -1211,268 -1671,1 -439,-256 -456,-665 -51,-934 l 105,60 c -349,236 -331,591 51,813 z"
   class="fil18"
   style="fill:#d2ae6d"
   inkscape:connector-curvature="0" />
     <path
   id="path151"
   d="m 101760,73127 c 544,316 1435,316 1985,-2 547,-316 550,-832 6,-1148 -504,-293 -1302,-315 -1853,-68 l -106,-61 c 610,-281 1501,-258 2064,69 602,349 601,920 -5,1270 -608,351 -1594,350 -2196,0 -584,-339 -600,-883 -51,-1236 l 105,61 c -492,319 -475,809 51,1115 z"
   class="fil18"
   style="fill:#d2ae6d"
   inkscape:connector-curvature="0" />
     <path
   id="path153"
   d="m 101533,73260 c 669,389 1765,389 2441,-1 674,-389 678,-1024 8,-1413 -628,-365 -1633,-388 -2311,-67 l -105,-61 c 737,-354 1834,-332 2521,67 728,423 724,1112 -9,1535 -734,423 -1923,423 -2650,1 -707,-411 -723,-1073 -50,-1499 l 105,60 c -616,392 -599,1001 50,1378 z"
   class="fil18"
   style="fill:#d2ae6d"
   inkscape:connector-curvature="0" />
     <path
   id="path155"
   d="m 111791,71485 c 401,233 1055,233 1461,-2 404,-233 406,-612 5,-845 -382,-222 -995,-234 -1401,-33 l -105,-61 c 463,-233 1171,-222 1611,33 459,267 455,701 -6,967 -462,267 -1211,268 -1670,1 -417,-242 -454,-623 -112,-891 l 106,61 c -286,235 -248,561 111,770 z"
   class="fil18"
   style="fill:#d2ae6d"
   inkscape:connector-curvature="0" />
     <path
   id="path157"
   d="m 111528,71636 c 545,316 1435,316 1985,-1 547,-316 551,-832 6,-1149 -527,-306 -1375,-317 -1926,-32 l -105,-61 c 609,-318 1551,-307 2136,33 602,350 601,921 -5,1270 -608,352 -1593,350 -2196,0 -561,-326 -598,-841 -113,-1193 l 106,60 c -428,319 -391,780 112,1073 z"
   class="fil18"
   style="fill:#d2ae6d"
   inkscape:connector-curvature="0" />
     <path
   id="path159"
   d="m 111301,71769 c 670,389 1765,389 2441,-1 674,-389 678,-1024 8,-1413 -651,-378 -1705,-389 -2382,-31 l -105,-60 c 736,-392 1883,-381 2592,31 728,422 724,1111 -8,1534 -735,424 -1923,424 -2651,1 -684,-398 -721,-1031 -112,-1458 l 105,61 c -552,393 -515,972 112,1336 z"
   class="fil18"
   style="fill:#d2ae6d"
   inkscape:connector-curvature="0" />
     <path
   id="path161"
   d="m 106908,66068 c 379,220 376,579 -4,798 -382,221 -1001,222 -1381,1 -370,-215 -377,-563 -21,-785 l 87,50 c -310,195 -302,498 21,685 332,193 872,193 1207,-1 334,-192 336,-505 4,-698 -277,-161 -701,-188 -1028,-80 l -89,-51 c 376,-135 879,-108 1204,81 z"
   class="fil18"
   style="fill:#d2ae6d"
   inkscape:connector-curvature="0" />
     <path
   id="path163"
   d="m 107033,66941 c 452,-261 454,-687 5,-948 -398,-231 -1016,-258 -1467,-83 l -88,-51 c 500,-203 1196,-175 1641,84 498,289 497,760 -4,1049 -502,290 -1316,289 -1813,0 -490,-284 -496,-743 -21,-1034 l 87,50 c -428,263 -422,677 21,934 449,262 1184,262 1639,-1 z"
   class="fil18"
   style="fill:#d2ae6d"
   inkscape:connector-curvature="0" />
     <path
   id="path165"
   d="m 107222,67052 c 557,-322 560,-846 7,-1167 -501,-291 -1289,-319 -1847,-84 l -87,-50 c 606,-263 1472,-235 2021,84 600,349 597,918 -8,1267 -278,160 -635,247 -999,261 l -785,-150 -95,-55 c 551,211 1305,176 1793,-106 z"
   class="fil18"
   style="fill:#d2ae6d"
   inkscape:connector-curvature="0" />
     <path
   id="path167"
   d="m 105187,65901 c -466,284 -519,713 -157,1027 l -271,-156 c -189,-309 -75,-668 341,-921 z"
   class="fil18"
   style="fill:#d2ae6d"
   inkscape:connector-curvature="0" />
    </g>
    <g
   id="g331">
     <path
   id="path171"
   d="m 61845,44446 h 5 c 319,0 605,226 386,404 v 0 c -16,13 -34,26 -55,38 v 0 c -24,13 -48,25 -73,35 v 0 c -404,159 -942,-178 -557,-401 v 0 c 92,-53 194,-75 294,-76 z"
   class="fil19"
   style="fill:#8480bc"
   inkscape:connector-curvature="0" />
     <path
   id="path173"
   d="m 60360,46601 c -17,15 -39,31 -64,45 v 0 c -19,11 -39,21 -60,30 v 0 c -406,171 -960,-172 -570,-396 v 0 c 93,-54 197,-77 298,-77 v 0 c 316,0 599,221 396,398 z"
   class="fil19"
   style="fill:#8480bc"
   inkscape:connector-curvature="0" />
     <path
   id="path175"
   d="m 61369,47835 h 5 c 314,0 596,218 398,395 v 0 c -18,16 -40,32 -67,47 v 0 c -18,11 -37,20 -56,28 v 0 c -407,175 -965,-168 -573,-394 v 0 c 91,-53 193,-75 293,-76 z"
   class="fil19"
   style="fill:#8480bc"
   inkscape:connector-curvature="0" />
     <path
   id="path177"
   d="m 68380,48436 -127,73 -6145,-3586 c 25,-10 49,-22 73,-35 v 0 c 21,-12 39,-25 55,-38 v 0 z"
   class="fil19"
   style="fill:#8480bc"
   inkscape:connector-curvature="0" />
     <path
   id="path179"
   d="m 61322,46307 3570,669 2987,1749 -127,74 -2956,-1733 -3570,-668 -2043,-1189 c 13,-6 25,-13 38,-20 v 0 c 33,-19 59,-38 79,-58 v 0 z"
   class="fil19"
   style="fill:#8480bc"
   inkscape:connector-curvature="0" />
     <path
   id="path181"
   d="m 61036,46995 3682,551 2581,1514 -127,73 -2547,-1494 -3682,-551 -707,-412 c 21,-9 41,-19 60,-30 v 0 c 25,-14 47,-30 64,-45 v 0 z"
   class="fil19"
   style="fill:#8480bc"
   inkscape:connector-curvature="0" />
     <path
   id="path183"
   d="m 65145,49437 c -14,11 -30,21 -48,32 v 0 c -27,15 -55,28 -83,39 v 0 c -404,149 -928,-185 -547,-405 v 0 c 93,-54 197,-76 298,-76 v 0 c 324,0 613,231 380,410 z"
   class="fil19"
   style="fill:#8480bc"
   inkscape:connector-curvature="0" />
     <path
   id="path185"
   d="m 66071,49990 -126,73 -931,-555 c 28,-11 56,-24 83,-39 v 0 c 18,-11 34,-21 48,-32 z"
   class="fil19"
   style="fill:#8480bc"
   inkscape:connector-curvature="0" />
     <path
   id="path187"
   d="m 65422,50365 -127,73 -3646,-2133 c 19,-8 38,-17 56,-28 v 0 c 27,-15 49,-31 67,-47 v 0 z"
   class="fil19"
   style="fill:#8480bc"
   inkscape:connector-curvature="0" />
     <polygon
   id="polygon189"
   points="68253,37344 68380,37344 68380,48436 68253,48509 "
   class="fil19"
   style="fill:#8480bc" />
     <polygon
   id="polygon191"
   points="67752,37633 67879,37633 67879,48725 67752,48799 "
   class="fil19"
   style="fill:#8480bc" />
     <polygon
   id="polygon193"
   points="67172,37969 67299,37969 67299,49061 67172,49134 "
   class="fil19"
   style="fill:#8480bc" />
     <polygon
   id="polygon195"
   points="66071,49990 65945,50063 65945,33975 66071,33975 "
   class="fil19"
   style="fill:#8480bc" />
     <polygon
   id="polygon197"
   points="65295,34350 65422,34350 65422,50365 65295,50438 "
   class="fil19"
   style="fill:#8480bc" />
     <path
   id="path199"
   d="m 59576,45255 c -20,20 -46,40 -78,59 v 0 c -13,7 -26,13 -39,20 v 0 c -407,192 -987,-158 -591,-386 v 0 c 93,-54 197,-76 298,-76 v 0 c 308,0 584,208 410,383 z"
   class="fil19"
   style="fill:#8480bc"
   inkscape:connector-curvature="0" />
     <path
   id="path201"
   d="m 96787,61999 c 7,1 14,2 21,3 v 0 c 449,86 446,852 -20,787 v 0 c -424,-60 -468,-706 -128,-786 v 0 c 23,-5 47,-8 73,-8 v 0 c 17,0 35,1 54,4 z"
   class="fil19"
   style="fill:#8480bc"
   inkscape:connector-curvature="0" />
     <path
   id="path203"
   d="m 94971,64844 h 4 3 c 17,0 34,2 52,4 v 0 c 15,2 31,5 45,9 v 0 c 424,109 412,845 -44,781 v 0 c -436,-61 -470,-740 -101,-791 v 0 c 13,-2 27,-3 41,-3 z"
   class="fil19"
   style="fill:#8480bc"
   inkscape:connector-curvature="0" />
     <path
   id="path205"
   d="m 95045,56894 1,246 29,7717 c -14,-4 -30,-7 -45,-9 v 0 c -37,-5 -70,-5 -100,-1 v 0 l -30,-7973 z"
   class="fil19"
   style="fill:#8480bc"
   inkscape:connector-curvature="0" />
     <path
   id="path207"
   d="m 95022,44295 23,12575 1744,2886 -2,2243 c -47,-7 -89,-5 -127,4 l -19,-2219 -1595,-2644 -1,-246 -145,-20 -24,-12599 z"
   class="fil19"
   style="fill:#8480bc"
   inkscape:connector-curvature="0" />
     <path
   id="path209"
   d="m 93995,44151 40,22623 c -37,-19 -79,-33 -146,-42 v 0 l -40,-22602 z"
   class="fil19"
   style="fill:#8480bc"
   inkscape:connector-curvature="0" />
     <path
   id="path211"
   d="m 91592,55702 c 15,0 30,1 46,4 v 0 c 36,5 69,14 100,27 v 0 c 369,155 337,824 -99,763 v 0 c -451,-64 -472,-794 -56,-794 v 0 c 3,0 6,0 9,0 z"
   class="fil19"
   style="fill:#8480bc"
   inkscape:connector-curvature="0" />
     <path
   id="path213"
   d="m 91721,46668 17,9065 c -31,-13 -64,-22 -100,-27 v 0 c -16,-3 -31,-4 -46,-4 v 0 l -17,-9054 z"
   class="fil19"
   style="fill:#8480bc"
   inkscape:connector-curvature="0" />
     <path
   id="path215"
   d="m 92995,44010 22,12148 -1575,1399 7,7652 c -15,-4 -31,-7 -48,-9 v 0 c -36,-6 -69,-6 -99,-1 v 0 l -8,-7730 1578,-1398 -23,-12081 z"
   class="fil19"
   style="fill:#8480bc"
   inkscape:connector-curvature="0" />
     <path
   id="path217"
   d="m 91450,65208 -1406,812 c -19,-16 -41,-31 -67,-46 v 0 c -26,-15 -53,-28 -80,-39 l 1407,-812 z"
   class="fil19"
   style="fill:#8480bc"
   inkscape:connector-curvature="0" />
     <path
   id="path219"
   d="m 89897,65935 c 27,11 54,24 80,39 v 0 c 26,15 48,30 67,46 v 0 c 154,129 83,279 -83,374 v 0 c -185,107 -488,145 -724,8 v 0 c -237,-138 -170,-314 15,-421 v 0 c 102,-58 237,-96 379,-96 v 0 c 89,0 180,15 266,50 z"
   class="fil19"
   style="fill:#8480bc"
   inkscape:connector-curvature="0" />
     <path
   id="path221"
   d="m 93043,65815 -5692,3294 c -20,-17 -43,-33 -70,-49 v 0 c -25,-14 -50,-27 -76,-37 l 5692,-3293 z"
   class="fil19"
   style="fill:#8480bc"
   inkscape:connector-curvature="0" />
     <path
   id="path223"
   d="m 94035,66769 -1491,860 -1124,2491 -808,473 c -17,-13 -37,-26 -59,-39 v 0 c -29,-18 -60,-32 -91,-44 v 0 l 769,-452 1126,-2491 1531,-884 z"
   class="fil19"
   style="fill:#8480bc"
   inkscape:connector-curvature="0" />
     <path
   id="path225"
   d="m 90206,70465 h 4 c 84,0 170,14 252,45 v 0 c 31,12 62,26 91,44 v 0 c 22,13 42,26 59,39 v 0 c 164,130 94,284 -74,380 v 0 c -185,107 -487,145 -724,7 v 0 c -237,-137 -171,-313 14,-419 v 0 c 101,-59 237,-96 378,-96 z"
   class="fil19"
   style="fill:#8480bc"
   inkscape:connector-curvature="0" />
     <path
   id="path227"
   d="m 93626,66154 -1972,1137 -1361,2417 -2375,1378 c -12,-9 -26,-18 -40,-26 v 0 c -38,-22 -78,-40 -118,-53 v 0 l 2350,-1364 1361,-2416 2008,-1159 z"
   class="fil19"
   style="fill:#8480bc"
   inkscape:connector-curvature="0" />
     <path
   id="path229"
   d="m 93004,43192 39,22623 c -37,-19 -78,-33 -145,-41 v 0 l -40,-22603 z"
   class="fil19"
   style="fill:#8480bc"
   inkscape:connector-curvature="0" />
     <path
   id="path231"
   d="m 93586,43528 40,22623 c -37,-19 -79,-32 -146,-41 v 0 l -40,-22602 z"
   class="fil19"
   style="fill:#8480bc"
   inkscape:connector-curvature="0" />
     <path
   id="path233"
   d="m 87401,68852 c 31,12 62,26 92,43 v 0 c 22,13 41,26 58,40 v 0 c 165,130 94,284 -73,380 v 0 c -185,107 -488,145 -725,7 v 0 c -237,-137 -170,-313 15,-420 v 0 c 101,-58 236,-96 378,-96 v 0 c 85,0 172,14 255,46 z"
   class="fil19"
   style="fill:#8480bc"
   inkscape:connector-curvature="0" />
     <path
   id="path235"
   d="m 87923,70829 c 31,12 62,26 92,43 v 0 c 22,13 41,26 58,40 v 0 c 164,130 94,283 -74,380 v 0 c -184,107 -487,145 -724,7 v 0 c -237,-138 -170,-313 15,-420 v 0 c 100,-58 236,-96 377,-96 v 0 c 86,0 173,14 256,46 z"
   class="fil19"
   style="fill:#8480bc"
   inkscape:connector-curvature="0" />
     <path
   id="path237"
   d="m 89108,53772 v 233 l 14,2334 c -16,-4 -32,-7 -48,-10 v 0 c -31,-4 -59,-4 -85,-1 v 0 l -15,-2575 z"
   class="fil19"
   style="fill:#8480bc"
   inkscape:connector-curvature="0" />
     <path
   id="path239"
   d="m 90153,59379 c 17,2 33,5 49,10 v 0 c 378,105 363,765 -47,707 v 0 c -397,-55 -428,-679 -87,-719 v 0 c 12,-1 24,-2 36,-2 v 0 c 16,0 32,1 49,4 z"
   class="fil19"
   style="fill:#8480bc"
   inkscape:connector-curvature="0" />
     <path
   id="path241"
   d="m 89083,40299 25,13450 1077,1852 -32,3778 c -30,-5 -59,-5 -85,-2 v 0 l -16,-3750 -944,-1622 v -233 l -134,-19 -25,-13472 z"
   class="fil19"
   style="fill:#8480bc"
   inkscape:connector-curvature="0" />
     <path
   id="path243"
   d="m 87209,54464 c 17,3 33,6 48,10 v 0 c 379,105 364,765 -47,708 v 0 c -396,-56 -427,-679 -86,-719 v 0 c 12,-2 24,-2 36,-2 v 0 c 16,0 32,1 49,3 z"
   class="fil19"
   style="fill:#8480bc"
   inkscape:connector-curvature="0" />
     <path
   id="path245"
   d="m 88439,40209 21,11182 -1215,1259 12,1824 c -15,-4 -31,-7 -48,-10 v 0 c -30,-4 -59,-4 -85,-1 v 0 l -13,-1889 1215,-1258 -21,-11126 z"
   class="fil19"
   style="fill:#8480bc"
   inkscape:connector-curvature="0" />
     <path
   id="path247"
   d="m 89021,56326 h 4 3 c 15,0 30,1 46,3 v 0 c 16,3 32,6 48,10 v 0 c 378,105 363,765 -47,708 v 0 c -397,-56 -426,-678 -86,-719 v 0 c 10,-2 21,-2 32,-2 z"
   class="fil19"
   style="fill:#8480bc"
   inkscape:connector-curvature="0" />
     <path
   id="path249"
   d="m 73428,56988 -3275,1887 c -21,-15 -44,-31 -70,-46 v 0 c -50,-28 -101,-51 -154,-70 l 3286,-1893 z"
   class="fil19"
   style="fill:#8480bc"
   inkscape:connector-curvature="0" />
     <path
   id="path251"
   d="m 69582,58702 h 6 c 114,0 230,18 341,57 v 0 c 53,19 104,42 154,70 v 0 c 26,15 49,31 70,46 v 0 c 536,396 -470,949 -1128,570 v 0 c -531,-307 -19,-743 557,-743 z"
   class="fil19"
   style="fill:#8480bc"
   inkscape:connector-curvature="0" />
     <polygon
   id="polygon253"
   points="73215,37206 73428,37206 73428,56988 73215,56866 "
   class="fil19"
   style="fill:#8480bc" />
     <polygon
   id="polygon255"
   points="75706,39121 75919,39121 75919,58904 75706,58781 "
   class="fil19"
   style="fill:#8480bc" />
     <path
   id="path257"
   d="m 70094,61927 h 6 c 110,1 223,17 331,54 v 0 c 56,19 111,43 163,74 v 0 c 23,13 45,27 64,41 v 0 c 551,395 -458,955 -1120,573 v 0 c -530,-306 -19,-742 556,-742 z"
   class="fil19"
   style="fill:#8480bc"
   inkscape:connector-curvature="0" />
     <path
   id="path259"
   d="m 75919,58905 -1431,857 239,3093 -1463,831 c -19,-13 -40,-27 -63,-40 v 0 c -53,-31 -108,-55 -164,-74 v 0 l 1384,-785 -220,-2855 -3543,2164 c -19,-14 -41,-28 -64,-41 v 0 c -52,-31 -107,-55 -163,-74 l 3751,-2292 -4,-37 1526,-871 z"
   class="fil19"
   style="fill:#8480bc"
   inkscape:connector-curvature="0" />
     <path
   id="path261"
   d="m 72846,63437 h 5 c 111,1 224,17 332,54 v 0 c 56,19 110,43 163,74 v 0 c 23,13 44,27 63,41 v 0 c 552,395 -457,955 -1120,573 v 0 c -530,-306 -18,-742 557,-742 z"
   class="fil19"
   style="fill:#8480bc"
   inkscape:connector-curvature="0" />
     <path
   id="path263"
   d="m 74613,37877 16,8767 c -10,-2 -20,-4 -30,-5 v 0 c -37,-6 -71,-5 -102,1 v 0 l -16,-8782 z"
   class="fil19"
   style="fill:#8480bc"
   inkscape:connector-curvature="0" />
     <path
   id="path265"
   d="m 74599,46639 c 10,1 20,3 30,5 v 0 c 397,90 389,771 -29,712 v 0 c -391,-55 -425,-658 -103,-716 v 0 c 17,-3 34,-5 53,-5 v 0 c 15,0 32,1 49,4 z"
   class="fil19"
   style="fill:#8480bc"
   inkscape:connector-curvature="0" />
     <path
   id="path267"
   d="m 74381,54263 h 2 1 c 15,0 31,1 47,4 v 0 c 30,4 58,12 84,22 v 0 c 341,134 315,749 -83,694 v 0 c -410,-58 -429,-720 -51,-720 z"
   class="fil19"
   style="fill:#8480bc"
   inkscape:connector-curvature="0" />
     <path
   id="path269"
   d="m 73360,37701 19,10090 1113,2165 23,4333 c -26,-10 -54,-18 -132,-26 v 0 l -22,-4285 -1115,-2165 -19,-10131 z"
   class="fil19"
   style="fill:#8480bc"
   inkscape:connector-curvature="0" />
     <path
   id="path271"
   d="m 72498,55292 c 13,0 27,1 41,3 v 0 c 33,5 63,13 91,25 v 0 c 334,141 305,747 -90,691 v 0 c -410,-58 -428,-719 -51,-719 v 0 c 3,0 6,0 9,0 z"
   class="fil19"
   style="fill:#8480bc"
   inkscape:connector-curvature="0" />
     <path
   id="path273"
   d="m 72597,37593 33,17727 c -28,-12 -58,-20 -91,-25 v 0 c -14,-2 -28,-3 -41,-3 v 0 l -33,-17717 z"
   class="fil19"
   style="fill:#8480bc"
   inkscape:connector-curvature="0" />
     <path
   id="path275"
   d="m 71451,44633 c 10,0 20,1 30,3 v 0 c 37,5 71,15 102,29 v 0 c 323,149 290,743 -100,688 v 0 c -410,-57 -429,-721 -51,-721 v 0 c 6,0 13,0 19,1 z"
   class="fil19"
   style="fill:#8480bc"
   inkscape:connector-curvature="0" />
     <path
   id="path277"
   d="m 71569,37449 14,7216 c -31,-14 -65,-24 -102,-29 v 0 c -10,-2 -20,-3 -30,-3 v 0 l -13,-7202 z"
   class="fil19"
   style="fill:#8480bc"
   inkscape:connector-curvature="0" />
     <path
   id="path279"
   d="m 70735,50801 v 233 l 14,2334 c -15,-4 -31,-7 -48,-10 v 0 c -31,-4 -59,-4 -85,-1 v 0 l -14,-2575 z"
   class="fil19"
   style="fill:#8480bc"
   inkscape:connector-curvature="0" />
     <path
   id="path281"
   d="m 71781,56408 c 16,2 32,6 48,10 v 0 c 378,105 363,765 -47,707 v 0 c -397,-55 -427,-679 -87,-719 v 0 c 12,-1 24,-2 36,-2 v 0 c 16,0 33,1 50,4 z"
   class="fil19"
   style="fill:#8480bc"
   inkscape:connector-curvature="0" />
     <path
   id="path283"
   d="m 70710,37328 25,13451 1078,1851 -32,3778 c -31,-5 -59,-5 -86,-2 v 0 l -16,-3750 -944,-1622 v -233 l -133,-19 -25,-13472 z"
   class="fil19"
   style="fill:#8480bc"
   inkscape:connector-curvature="0" />
     <path
   id="path285"
   d="m 68784,51490 h 4 3 c 15,0 30,1 45,3 v 0 c 17,2 33,6 48,10 v 0 c 379,105 364,766 -46,708 v 0 c -397,-56 -428,-679 -87,-719 v 0 c 11,-1 22,-2 33,-2 z"
   class="fil19"
   style="fill:#8480bc"
   inkscape:connector-curvature="0" />
     <path
   id="path287"
   d="m 70066,37238 21,11182 -1215,1260 12,1823 c -15,-4 -31,-8 -48,-10 v 0 c -30,-4 -59,-4 -85,-1 v 0 l -12,-1888 1214,-1260 -20,-11125 z"
   class="fil19"
   style="fill:#8480bc"
   inkscape:connector-curvature="0" />
     <path
   id="path289"
   d="m 70701,53358 c 17,3 33,6 48,10 v 0 c 378,106 364,766 -47,708 v 0 c -397,-56 -426,-678 -86,-719 v 0 c 11,-2 23,-2 36,-2 v 0 c 15,0 32,1 49,3 z"
   class="fil19"
   style="fill:#8480bc"
   inkscape:connector-curvature="0" />
     <path
   id="path291"
   d="m 105958,66133 c -46,16 -90,36 -133,61 v 0 c -23,13 -43,26 -61,39 v 0 l -2965,-1708 184,-106 z"
   class="fil19"
   style="fill:#8480bc"
   inkscape:connector-curvature="0" />
     <path
   id="path293"
   d="m 106739,66725 c -568,328 -1438,-150 -975,-492 v 0 c 18,-13 38,-26 61,-39 v 0 c 43,-25 87,-45 133,-61 v 0 c 97,-34 199,-50 299,-50 v 0 c 498,0 940,378 482,642 z"
   class="fil19"
   style="fill:#8480bc"
   inkscape:connector-curvature="0" />
     <path
   id="path295"
   d="m 105524,67213 3409,649 2202,1259 c -19,9 -37,19 -56,29 v 0 c -47,28 -84,56 -113,85 v 0 l -2174,-1242 -3409,-647 -3736,-2156 185,-106 z"
   class="fil19"
   style="fill:#8480bc"
   inkscape:connector-curvature="0" />
     <polygon
   id="polygon297"
   points="102799,49304 102983,49304 102983,64419 102799,64525 "
   class="fil19"
   style="fill:#8480bc" />
     <polygon
   id="polygon299"
   points="101831,65089 101647,65195 101647,49974 101831,49974 "
   class="fil19"
   style="fill:#8480bc" />
     <polygon
   id="polygon301"
   points="100688,50526 100872,50526 100872,65641 100688,65747 "
   class="fil19"
   style="fill:#8480bc" />
     <polygon
   id="polygon303"
   points="99649,66344 99465,66450 99465,51229 99649,51229 "
   class="fil19"
   style="fill:#8480bc" />
     <polygon
   id="polygon305"
   points="98204,51956 98388,51956 98388,67071 98204,67178 "
   class="fil19"
   style="fill:#8480bc" />
     <path
   id="path307"
   d="m 111994,69682 c -544,314 -1362,-110 -1028,-447 v 0 c 29,-29 66,-57 113,-85 v 0 c 19,-10 37,-20 56,-29 v 0 c 120,-56 250,-81 376,-81 v 0 c 498,0 941,377 483,642 z"
   class="fil19"
   style="fill:#8480bc"
   inkscape:connector-curvature="0" />
     <path
   id="path309"
   d="m 106194,70112 c -55,17 -109,40 -160,69 v 0 c -15,9 -29,18 -41,26 v 0 l -6528,-3757 184,-106 z"
   class="fil19"
   style="fill:#8480bc"
   inkscape:connector-curvature="0" />
     <path
   id="path311"
   d="m 105024,68035 3593,705 3664,2110 c -42,15 -83,34 -122,57 v 0 c -26,14 -48,29 -68,45 l -3615,-2081 -3593,-705 -4194,-2422 183,-106 z"
   class="fil19"
   style="fill:#8480bc"
   inkscape:connector-curvature="0" />
     <path
   id="path313"
   d="m 106946,70712 c -577,333 -1459,-162 -953,-505 v 0 c 12,-8 26,-17 41,-26 v 0 c 51,-29 105,-52 160,-69 v 0 c 89,-28 181,-41 271,-41 v 0 c 497,0 939,377 481,641 z"
   class="fil19"
   style="fill:#8480bc"
   inkscape:connector-curvature="0" />
     <path
   id="path315"
   d="m 105105,70873 h 5 c 497,0 939,376 481,641 v 0 c -573,330 -1444,-154 -968,-495 v 0 c 17,-12 35,-24 55,-36 v 0 c 45,-26 93,-47 141,-63 v 0 c 93,-32 191,-46 286,-47 z"
   class="fil19"
   style="fill:#8480bc"
   inkscape:connector-curvature="0" />
     <path
   id="path317"
   d="m 99845,67901 -4,33 4978,2986 c -48,16 -96,37 -141,63 v 0 c -20,12 -38,24 -55,36 v 0 l -4798,-2876 -190,2466 2933,1685 c -49,16 -96,37 -141,63 v 0 c -20,12 -38,24 -55,35 l -3002,-1723 207,-2672 -1373,-819 186,-107 z"
   class="fil19"
   style="fill:#8480bc"
   inkscape:connector-curvature="0" />
     <path
   id="path319"
   d="m 112982,71327 c -572,331 -1444,-153 -967,-495 v 0 c 16,-12 35,-24 55,-35 v 0 c 45,-26 92,-47 141,-64 v 0 c 94,-32 193,-46 290,-46 v 0 c 497,0 939,376 481,640 z"
   class="fil19"
   style="fill:#8480bc"
   inkscape:connector-curvature="0" />
     <path
   id="path321"
   d="m 103214,72818 c -573,330 -1444,-153 -968,-495 v 0 c 17,-12 35,-24 55,-36 v 0 c 46,-26 93,-47 141,-63 v 0 c 95,-32 194,-47 291,-47 v 0 c 497,0 939,377 481,641 z"
   class="fil19"
   style="fill:#8480bc"
   inkscape:connector-curvature="0" />
     <path
   id="path323"
   d="m 69143,46938 h 4 3 c 17,0 33,1 51,4 v 0 c 7,1 14,2 21,3 v 0 c 451,86 445,852 -20,787 v 0 c -425,-60 -468,-706 -128,-786 v 0 c 22,-5 45,-8 69,-8 z"
   class="fil19"
   style="fill:#8480bc"
   inkscape:connector-curvature="0" />
     <path
   id="path325"
   d="m 69202,36361 -1,10581 c -47,-7 -89,-5 -127,4 v 0 l -20,-10606 z"
   class="fil19"
   style="fill:#8480bc"
   inkscape:connector-curvature="0" />
     <path
   id="path327"
   d="m 103950,61677 c 15,0 30,1 46,3 v 0 c 36,5 69,15 100,27 v 0 c 369,155 337,825 -99,763 v 0 c -451,-63 -472,-794 -56,-794 v 0 c 3,0 6,0 9,1 z"
   class="fil19"
   style="fill:#8480bc"
   inkscape:connector-curvature="0" />
     <path
   id="path329"
   d="m 104079,52643 17,9064 c -31,-12 -64,-22 -100,-27 v 0 c -16,-2 -31,-3 -46,-3 v 0 l -17,-9054 z"
   class="fil19"
   style="fill:#8480bc"
   inkscape:connector-curvature="0" />
    </g>
    <g
   id="g361">
     <polygon
   id="polygon333"
   points="98343,20809 99932,24913 98325,27171 95128,25326 93538,21221 95146,18963 "
   class="fil20"
   style="fill:#d7b67c" />
     <polygon
   id="polygon335"
   points="105057,31320 108254,33166 109842,37269 108236,39528 105039,37682 103449,33578 "
   class="fil20"
   style="fill:#d7b67c" />
     <path
   id="path337"
   d="m 100173,18603 -1578,2217 1560,4028 3137,1811 1578,-2216 -1560,-4029 z m 3179,8208 -3257,-1880 -1618,-4180 15,-20 1622,-2280 3256,1880 1619,4180 -15,22 z"
   class="fil21"
   style="fill:#bfa36f"
   inkscape:connector-curvature="0" />
     <path
   id="path339"
   d="m 98473,27356 1622,-2280 3256,1880 1619,4181 -15,20 -1622,2280 -3256,-1880 -1619,-4180 z m 1681,-2129 -1578,2218 1561,4027 3137,1811 1578,-2215 -1561,-4030 z"
   class="fil21"
   style="fill:#bfa36f"
   inkscape:connector-curvature="0" />
     <polygon
   id="polygon341"
   points="116055,56251 119252,58097 120840,62200 119234,64459 116037,62613 114447,58509 "
   class="fil20"
   style="fill:#d7b67c" />
     <path
   id="path343"
   d="m 114350,51742 -3257,-1880 -1618,-4180 15,-20 1622,-2280 3256,1880 1619,4180 -15,21 z m -3197,-1963 3137,1811 1578,-2216 -1560,-4029 -3137,-1811 -1578,2217 z"
   class="fil21"
   style="fill:#bfa36f"
   inkscape:connector-curvature="0" />
     <path
   id="path345"
   d="m 111152,50158 -1578,2218 1561,4027 3137,1811 1578,-2215 -1561,-4030 z m -1681,2128 1622,-2280 3256,1880 1619,4182 -15,19 -1622,2280 -3256,-1880 -1619,-4179 z"
   class="fil21"
   style="fill:#bfa36f"
   inkscape:connector-curvature="0" />
     <path
   id="path347"
   d="m 65570,23922 777,2008 -1835,1067 c -5,3 -10,5 -15,9 -1,0 -2,1 -3,1 -644,374 -1144,994 -1449,1830 l -690,-398 -1590,-4104 1608,-2259 z"
   class="fil20"
   style="fill:#d7b67c"
   inkscape:connector-curvature="0" />
     <path
   id="path349"
   d="m 67399,21716 -1578,2217 728,1880 -75,43 -771,-1991 15,-20 1622,-2280 3257,1880 665,1719 c -21,23 -43,48 -64,72 l -661,-1708 z"
   class="fil21"
   style="fill:#bfa36f"
   inkscape:connector-curvature="0" />
     <path
   id="path351"
   d="m 57551,28536 -1622,2280 -3257,-1880 -1618,-4179 15,-22 1622,-2279 3256,1881 1619,4179 z m -1682,2128 1578,-2216 -1560,-4029 -3137,-1811 -1578,2217 1560,4028 z"
   class="fil21"
   style="fill:#bfa36f"
   inkscape:connector-curvature="0" />
     <polygon
   id="polygon353"
   points="107235,62174 105645,58070 107253,55812 110450,57658 112039,61761 110432,64020 "
   class="fil20"
   style="fill:#d7b67c" />
     <polygon
   id="polygon355"
   points="106126,50256 104536,46152 106144,43894 109341,45740 110930,49844 109323,52102 "
   class="fil20"
   style="fill:#d7b67c" />
     <polygon
   id="polygon357"
   points="99434,39089 96237,37243 94647,33139 96255,30881 99452,32727 101041,36830 "
   class="fil20"
   style="fill:#d7b67c" />
     <path
   id="path359"
   d="m 85524,19495 -1578,2217 1560,4028 3137,1811 1578,-2216 -1560,-4029 z m 4800,5928 -1622,2280 -3256,-1880 -1619,-4180 15,-21 1622,-2279 3257,1880 1618,4180 z"
   class="fil21"
   style="fill:#bfa36f"
   inkscape:connector-curvature="0" />
    </g>
    <g
   id="g373">
     <path
   id="path363"
   d="m 71793,25607 1446,834 -2973,1728 -1445,-835 c -1684,-972 -3219,-1059 -4328,-414 l 2973,-1728 c 468,-272 1011,-414 1610,-414 v 0 c 820,0 1744,267 2717,829 z"
   class="fil14"
   style="fill:#bbb8da"
   inkscape:connector-curvature="0" />
     <path
   id="path365"
   d="m 92783,25372 c 5754,3323 10401,11374 10382,17983 v 0 c 0,127 -4,252 -8,375 v 0 l -2972,1727 c 4,-123 7,-248 7,-374 v 0 c 19,-6610 -4628,-14661 -10382,-17983 v 0 c -2329,-1346 -4594,-30 -6333,454 l -1851,458 -1292,662 -437,-2305 3523,-588 1951,-1134 c 796,-462 1720,-703 2739,-703 1406,0 2994,459 4673,1428 z"
   class="fil14"
   style="fill:#bbb8da"
   inkscape:connector-curvature="0" />
     <path
   id="path367"
   d="m 107062,48030 c 1102,1904 1779,4050 1775,5972 v 0 c -5,1913 -686,3262 -1782,3898 v 0 l -2973,1727 c 1096,-635 1777,-1985 1781,-3897 v 0 c 5,-1923 -674,-4069 -1773,-5972 v 0 c -1014,-1758 -2386,-3309 -3905,-4301 v 0 l 2972,-1727 c 1520,989 2891,2543 3905,4300 z"
   class="fil16"
   style="fill:#9f9ccb"
   inkscape:connector-curvature="0" />
     <path
   id="path369"
   d="m 78938,23194 4482,2587 -1021,594 c 368,-214 766,-382 1188,-498 v 0 l 250,144 -2975,1728 -4897,-2827 c -1572,-908 -3003,-988 -4037,-388 l 2974,-1728 c 436,-253 942,-385 1501,-385 764,0 1626,248 2535,773 z"
   class="fil16"
   style="fill:#9f9ccb"
   inkscape:connector-curvature="0" />
     <path
   id="path371"
   d="m 75965,24922 4898,2827 c 1832,-2426 5156,-2837 8946,-649 v 0 c 5754,3322 10401,11373 10383,17983 v 0 c -1,126 -3,251 -7,374 v 0 c 1519,991 2890,2543 3905,4300 v 0 c 1100,1904 1779,4051 1774,5973 v 0 c -11,3850 -2760,5416 -6110,3482 v 0 L 68782,41330 c -1675,-967 -3196,-2632 -4296,-4538 v 0 c -1101,-1906 -1780,-4051 -1774,-5976 v 0 c 11,-3847 2759,-5415 6109,-3481 v 0 l 1445,834 c 8,-2545 1299,-4020 3164,-4020 v 0 c 765,0 1627,248 2535,773 z"
   class="fil22"
   style="fill:#f9fafc"
   inkscape:connector-curvature="0" />
    </g>
    <g
   id="g397">
     <polygon
   id="polygon375"
   points="77044,50794 74628,49399 75295,49012 77710,50406 "
   class="fil23"
   style="fill:#536896" />
     <polygon
   id="polygon377"
   points="87081,56589 84801,55272 85467,54885 87748,56201 "
   class="fil23"
   style="fill:#536896" />
     <polygon
   id="polygon379"
   points="84801,55272 84818,48970 85485,48582 85467,54885 "
   class="fil24"
   style="fill:#7b93c9" />
     <polygon
   id="polygon381"
   points="84818,48970 77061,44491 77728,44104 85485,48582 "
   class="fil23"
   style="fill:#536896" />
     <polygon
   id="polygon383"
   points="77061,44491 84818,48970 84801,55272 87081,56589 80835,59938 74628,49399 77044,50794 "
   class="fil25"
   style="fill:#afbee1" />
     <polygon
   id="polygon385"
   points="84819,48710 84824,46910 85491,46522 85486,48323 "
   class="fil24"
   style="fill:#7b93c9" />
     <polygon
   id="polygon387"
   points="84824,46910 77067,42431 77734,42044 85491,46522 "
   class="fil23"
   style="fill:#536896" />
     <polygon
   id="polygon389"
   points="84819,48710 77062,44232 77067,42431 84824,46910 "
   class="fil25"
   style="fill:#afbee1" />
     <polygon
   id="polygon391"
   points="84825,46663 84828,45395 85495,45008 85492,46275 "
   class="fil24"
   style="fill:#7b93c9" />
     <polygon
   id="polygon393"
   points="84828,45395 77071,40917 77738,40529 85495,45008 "
   class="fil23"
   style="fill:#536896" />
     <polygon
   id="polygon395"
   points="84825,46663 77068,42184 77071,40917 84828,45395 "
   class="fil25"
   style="fill:#afbee1" />
    </g>
   </g><g
     id="g407">
    <path
   id="path401"
   d="m 27503,16220 c 0,-4844 -3927,-8771 -8772,-8771 -4844,0 -8771,3927 -8771,8771 0,4845 3927,8772 8771,8772 4845,0 8772,-3927 8772,-8772 z m -7118,2483 v 1654 h -6620 v -1654 z m -6620,-4966 v -1656 c 3310,0 6622,0 9932,0 l -1656,1656 c -2759,0 -5517,0 -8276,0 z m 9932,1654 c 0,1656 0,3312 0,4966 h -1656 v -3310 0 h -8276 v -1656 c 3310,0 6620,0 9932,0 z"
   class="fil13"
   style="fill:#eddfc4"
   inkscape:connector-curvature="0" />
    <path
   id="path403"
   d="m 13872,15668 c 0,4589 3525,8355 8014,8739 -979,378 -2043,585 -3155,585 -4844,0 -8771,-3927 -8771,-8772 0,-4844 3927,-8771 8771,-8771 255,0 508,11 757,32 -3285,1267 -5616,4455 -5616,8187 z"
   class="fil26"
   style="fill:#d7bf93"
   inkscape:connector-curvature="0" />
    <path
   id="path405"
   d="m 13765,12081 h 9932 l -1656,1656 h -8276 z m 0,6622 h 6620 v 1654 h -6620 z m 0,-3312 h 9932 v 4966 h -1656 v -3310 h -8276 z"
   class="fil20"
   style="fill:#d7b67c"
   inkscape:connector-curvature="0" />
   </g><path
     id="path411"
     d="m 101702,78656 c 14925,-4292 30517,-14230 39899,-22347 v 29502 c -13489,3563 -28943,2071 -39899,-7155 z"
     class="fil28"
     style="fill:#e7d5b4"
     inkscape:connector-curvature="0" /><path
     id="path413"
     d="m 130350,78092 c -1454,47 -2620,1240 -2627,2717 h -24 c -12,-1477 -1177,-2670 -2627,-2717 1458,-48 2627,-1253 2627,-2738 h 20 c 0,1485 1169,2690 2631,2738 z"
     class="fil0"
     style="fill:#f7f1e5"
     inkscape:connector-curvature="0" /><g
     id="g425">
    <path
   id="path415"
   d="m 108411,93720 c 0,-2303 -1867,-4170 -4170,-4170 -2303,0 -4170,1867 -4170,4170 0,2303 1867,4170 4170,4170 2303,0 4170,-1867 4170,-4170 z"
   class="fil29"
   style="fill:#ebdbbe;fill-rule:nonzero"
   inkscape:connector-curvature="0" />
    <path
   id="path417"
   d="m 108319,92849 c -400,-1885 -2074,-3299 -4078,-3299 -2303,0 -4170,1867 -4170,4170 0,528 98,1033 277,1498 667,-190 1673,-526 3172,-1084 2198,-820 3713,-1186 4799,-1285 z"
   class="fil30"
   style="fill:#e4cfaa;fill-rule:nonzero"
   inkscape:connector-curvature="0" />
    <path
   id="path419"
   d="m 104241,97890 c 1694,0 3152,-1010 3804,-2461 -638,-22 -1351,-85 -2106,-217 -1859,-324 -3760,595 -4835,1255 764,872 1886,1423 3137,1423 z"
   class="fil31"
   style="fill:#f2e8d4;fill-rule:nonzero"
   inkscape:connector-curvature="0" />
    <path
   id="path421"
   d="m 100103,93200 c 1332,-150 2745,-507 4038,-1224 1150,-638 2063,-1105 2782,-1448 -725,-610 -1660,-978 -2682,-978 -2127,0 -3882,1593 -4138,3650 z"
   class="fil32"
   style="fill:#eddfc4;fill-rule:nonzero"
   inkscape:connector-curvature="0" />
    <path
   id="path423"
   d="m 105984,96538 c -2110,0 -3820,-1710 -3820,-3820 0,-1305 655,-2457 1653,-3146 -2104,212 -3746,1988 -3746,4148 0,2303 1867,4170 4170,4170 1385,0 2613,-676 3371,-1715 -494,233 -1046,363 -1628,363 z"
   class="fil33"
   style="fill:#e0c99f;fill-rule:nonzero"
   inkscape:connector-curvature="0" />
   </g><g
     transform="translate(4189.7669,1629.3538)"
     id="g439">
    <g
   id="g431">
     <path
   style="fill:#9f9ccb"
   inkscape:connector-curvature="0"
   id="path427"
   d="m 69082,99795 v 5 6 c 0,119 -7,233 -13,346 v 0 l -114,-64 c -3,55 -3,110 -7,164 v 0 l -114,-64 c -2,54 -3,110 -6,164 v 0 l -114,-64 c -2,54 -3,110 -6,163 v 0 l -114,-64 c -2,55 -3,110 -6,164 v 0 l -114,-64 c -3,54 -3,110 -6,163 v 0 l -114,-63 c -3,54 -4,110 -7,163 v 0 l -114,-63 c -2,54 -3,109 -6,163 v 0 l -114,-64 c -2,54 -3,110 -6,164 v 0 l -114,-64 c -2,54 -3,110 -6,163 v 0 L 50786,91412 c -8,-125 -14,-249 -14,-373 v 0 c 0,-1174 359,-2036 937,-2476 v 0 c 38,-35 79,-68 120,-99 v 0 c 39,-36 79,-69 120,-100 v 0 c 39,-36 79,-69 120,-100 v 0 c 39,-35 79,-68 120,-99 v 0 c 39,-36 80,-69 121,-100 v 0 c 38,-36 79,-69 120,-100 v 0 c 39,-35 79,-68 120,-100 v 0 c 39,-35 79,-68 120,-99 v 0 c 556,-509 1351,-587 2236,-122 v 0 c 241,-529 561,-950 945,-1253 v 0 c 39,-34 79,-67 120,-99 v 0 c 39,-35 79,-68 120,-100 v 0 c 39,-34 79,-67 120,-99 v 0 c 39,-35 80,-68 120,-100 v 0 c 40,-35 80,-68 120,-100 v 0 c 40,-35 80,-67 121,-99 v 0 c 39,-35 79,-68 120,-100 v 0 c 39,-35 79,-68 120,-100 v 0 c 477,-422 1061,-647 1718,-647 v 0 c 583,0 1224,178 1896,554 v 0 c 2234,1252 4120,4305 4727,7382 v 0 c 131,54 264,116 399,191 v 0 c 1950,1093 3530,4101 3530,6721 z"
   class="fil16" />
     <path
   style="fill:#e9edf7"
   inkscape:connector-curvature="0"
   id="path429"
   d="m 59344,86398 c 2234,1252 4120,4305 4727,7382 131,54 264,116 399,191 1950,1093 3530,4102 3530,6721 0,66 -2,131 -4,195 l -3,-1 c -2,52 -3,106 -6,158 0,1 0,2 0,3 0,1 0,2 0,2 L 50786,91412 c -8,-125 -14,-249 -14,-373 0,-1174 358,-2036 937,-2476 2,-2 3,-3 5,-5 566,-427 1339,-451 2192,27 207,115 408,256 603,417 83,-509 218,-963 397,-1358 241,-529 561,-950 945,-1253 5,-5 11,-9 16,-14 892,-691 2120,-739 3477,21 z"
   class="fil15" />
    </g>
    <g
   id="g437">
     <path
   style="fill:#bbb8da"
   inkscape:connector-curvature="0"
   id="path433"
   d="m 53241,73451 v -11 c 0,-727 222,-1259 579,-1532 v 0 c 25,-22 49,-42 75,-61 v 0 c 24,-22 49,-43 74,-62 v 0 c 24,-22 49,-42 75,-62 v 0 c 24,-22 49,-42 74,-61 v 0 c 24,-23 49,-43 74,-62 v 0 c 24,-22 50,-42 75,-62 v 0 c 24,-22 49,-42 74,-61 v 0 c 24,-22 49,-43 75,-62 v 0 c 344,-315 835,-363 1383,-75 v 0 c 149,-327 347,-588 584,-775 v 0 c 24,-22 49,-42 74,-62 v 0 c 25,-22 50,-42 75,-62 v 0 c 24,-21 49,-41 74,-61 v 0 c 24,-22 49,-42 75,-62 v 0 c 24,-21 49,-42 74,-62 v 0 c 24,-21 49,-41 74,-61 v 0 c 25,-22 50,-42 75,-62 v 0 c 24,-22 49,-42 74,-62 v 0 c 295,-261 657,-400 1063,-400 361,0 757,110 1173,343 v 0 c 1382,774 2549,2663 2924,4567 v 0 c 81,33 163,71 248,118 v 0 c 1206,676 2184,2538 2184,4158 v 0 c 0,76 -5,149 -9,221 v 0 l -70,-39 c -2,33 -2,68 -4,101 v 0 l -71,-40 c -1,34 -2,69 -4,102 v 0 l -70,-40 c -2,34 -2,68 -4,101 v 0 l -71,-39 c -1,33 -2,68 -3,101 v 0 l -71,-40 c -2,34 -2,69 -4,102 v 0 l -70,-40 c -2,34 -2,68 -4,101 v 0 l -71,-39 c -1,33 -2,68 -4,101 v 0 l -70,-40 c -2,34 -2,69 -4,102 v 0 l -70,-40 c -2,34 -2,68 -4,101 v 0 L 53250,73671 c -5,-74 -8,-147 -9,-220 z"
   class="fil14" />
     <path
   style="fill:#e9edf7;fill-rule:nonzero"
   inkscape:connector-curvature="0"
   id="path435"
   d="m 63892,79633 c 4,-72 8,-145 8,-221 0,-1620 -978,-3482 -2184,-4158 -84,-46 -166,-85 -247,-118 -375,-1904 -1542,-3793 -2925,-4567 -1478,-828 -2710,-107 -2991,1611 -121,-99 -245,-187 -373,-258 -1071,-600 -1939,80 -1939,1518 0,76 4,154 9,231 z"
   class="fil34" />
    </g>
   </g></g>
  </g>
 </g>
</svg>