<?xml version="1.0" encoding="UTF-8" standalone="no"?>
<!-- Created with Inkscape (http://www.inkscape.org/) -->

<svg
   xmlns:dc="http://purl.org/dc/elements/1.1/"
   xmlns:cc="http://creativecommons.org/ns#"
   xmlns:rdf="http://www.w3.org/1999/02/22-rdf-syntax-ns#"
   xmlns:svg="http://www.w3.org/2000/svg"
   xmlns="http://www.w3.org/2000/svg"
   xmlns:sodipodi="http://sodipodi.sourceforge.net/DTD/sodipodi-0.dtd"
   xmlns:inkscape="http://www.inkscape.org/namespaces/inkscape"
   width="1024"
   height="1024"
   viewBox="0 0 270.93332 270.93334"
   version="1.1"
   id="svg8"
   inkscape:version="0.92.4 (33fec40, 2019-01-16)"
   sodipodi:docname="object-planet-globe-1.svg">
  <defs
     id="defs2">
    <style
       id="style3713"
       type="text/css">
   <![CDATA[
    .fil2 {fill:#CCCCCC;fill-rule:nonzero}
    .fil1 {fill:#E6E6E6;fill-rule:nonzero}
    .fil0 {fill:white;fill-rule:nonzero}
   ]]>
  </style>
  </defs>
  <sodipodi:namedview
     id="base"
     pagecolor="#ffffff"
     bordercolor="#666666"
     borderopacity="1.0"
     inkscape:pageopacity="0.0"
     inkscape:pageshadow="2"
     inkscape:zoom="0.35355339"
     inkscape:cx="476.80562"
     inkscape:cy="349.54371"
     inkscape:document-units="mm"
     inkscape:current-layer="layer1"
     showgrid="false"
     units="px"
     inkscape:window-width="1312"
     inkscape:window-height="731"
     inkscape:window-x="1334"
     inkscape:window-y="256"
     inkscape:window-maximized="1" />
  <metadata
     id="metadata5">
    <rdf:RDF>
      <cc:Work
         rdf:about="">
        <dc:format>image/svg+xml</dc:format>
        <dc:type
           rdf:resource="http://purl.org/dc/dcmitype/StillImage" />
        <dc:title></dc:title>
      </cc:Work>
    </rdf:RDF>
  </metadata>
  <g
     inkscape:label="Layer 1"
     inkscape:groupmode="layer"
     id="layer1"
     transform="translate(0,-26.066653)">
    <g
       style="clip-rule:evenodd;fill-rule:evenodd;image-rendering:optimizeQuality;shape-rendering:geometricPrecision;text-rendering:geometricPrecision"
       id="g3748"
       transform="matrix(0.03336845,0,0,0.03350034,-0.00281985,26.08411)">
      <g
         id="Layer_x0020_1">
  <metadata
   id="CorelCorpID_0Corel-Layer" />

  <g
   id="_2724845345424">
   <path
   id="path3718"
   d="M 3021,139 C 5185,-441 7403,840 7982,3004 8557,5150 7277,7367 5113,7947 2949,8527 713,7251 138,5106 -441,2942 857,719 3021,139 Z"
   class="fil0"
   inkscape:connector-curvature="0"
   style="fill:#ffffff;fill-rule:nonzero" />

   <path
   id="path3720"
   d="M 7365,6397 C 6829,7140 6051,7696 5113,7947 2949,8527 713,7251 138,5106 -185,3897 84,2666 756,1713 c 0,0 -344,3261 1966,4595 2304,1315 4643,89 4643,89 z"
   class="fil1"
   inkscape:connector-curvature="0"
   style="fill:#e6e6e6;fill-rule:nonzero" />

   <path
   id="path3722"
   d="m 2211,6729 -28,-104 c -36,-135 162,-188 198,-53 l 28,104 c 36,136 -162,189 -198,53 z"
   class="fil2"
   inkscape:connector-curvature="0"
   style="fill:#cccccc;fill-rule:nonzero" />

   <path
   id="path3724"
   d="m 6810,5487 c -15,26 -35,61 -50,87 -45,78 -167,8 -121,-70 15,-26 36,-54 50,-87 45,-78 166,-8 121,70 z"
   class="fil1"
   inkscape:connector-curvature="0"
   style="fill:#e6e6e6;fill-rule:nonzero" />

   <path
   id="path3726"
   d="m 2229,1056 c -51,-189 251,-270 302,-81 53,196 -250,277 -302,81 z"
   class="fil1"
   inkscape:connector-curvature="0"
   style="fill:#e6e6e6;fill-rule:nonzero" />

   <path
   id="path3728"
   d="m 5124,6543 c -49,-185 239,-262 288,-77 52,192 -236,269 -288,77 z"
   class="fil1"
   inkscape:connector-curvature="0"
   style="fill:#e6e6e6;fill-rule:nonzero" />

  </g>

 </g>
    </g>
  </g>
</svg>
