<?xml version="1.0" encoding="UTF-8" standalone="no"?>
<!-- Creator: CorelDRAW X7 -->

<svg
   xmlns:dc="http://purl.org/dc/elements/1.1/"
   xmlns:cc="http://creativecommons.org/ns#"
   xmlns:rdf="http://www.w3.org/1999/02/22-rdf-syntax-ns#"
   xmlns:svg="http://www.w3.org/2000/svg"
   xmlns="http://www.w3.org/2000/svg"
   xmlns:sodipodi="http://sodipodi.sourceforge.net/DTD/sodipodi-0.dtd"
   xmlns:inkscape="http://www.inkscape.org/namespaces/inkscape"
   xml:space="preserve"
   width="0.711063in"
   height="0.711063in"
   version="1.1"
   style="shape-rendering:geometricPrecision; text-rendering:geometricPrecision; image-rendering:optimizeQuality; fill-rule:evenodd; clip-rule:evenodd"
   viewBox="0 0 7111 7111"
   id="svg13"
   sodipodi:docname="file-manager-cloud-2.svg"
   inkscape:version="0.92.3 (2405546, 2018-03-11)"><metadata
   id="metadata17"><rdf:RDF><cc:Work
       rdf:about=""><dc:format>image/svg+xml</dc:format><dc:type
         rdf:resource="http://purl.org/dc/dcmitype/StillImage" /></cc:Work></rdf:RDF></metadata><sodipodi:namedview
   pagecolor="#ffffff"
   bordercolor="#666666"
   borderopacity="1"
   objecttolerance="10"
   gridtolerance="10"
   guidetolerance="10"
   inkscape:pageopacity="0"
   inkscape:pageshadow="2"
   inkscape:window-width="1315"
   inkscape:window-height="713"
   id="namedview15"
   showgrid="false"
   inkscape:zoom="6.91453"
   inkscape:cx="21.713274"
   inkscape:cy="34.865451"
   inkscape:window-x="51"
   inkscape:window-y="339"
   inkscape:window-maximized="1"
   inkscape:current-layer="g825" />
 <defs
   id="defs4">
  <style
   type="text/css"
   id="style2">
   <![CDATA[
    .fil0 {fill:none}
    .fil1 {fill:black}
   ]]>
  </style>
 </defs>
 <g
   id="Layer_x0020_1">
  <metadata
   id="CorelCorpID_0Corel-Layer" />
  <g
   id="_2846404420112">
   <rect
   class="fil0"
   width="7111"
   height="7111"
   id="rect7"
   x="-0.00019869246"
   y="-0.00019869246"
   style="fill:none" />
   <g
   id="g825"
   transform="translate(15.065501,-135.0913)"><path
     sodipodi:nodetypes="ccccccccccccccccccccccccccccccccccccccccc"
     style="fill:#000000"
     inkscape:connector-curvature="0"
     id="path9"
     d="m 2860.5329,2175.6134 555,555 h 2001 l -45.1971,2474.9555 h -3707 l 45.1971,-3029.9555 z m 702,1853 h 719 c 126,-4 179,-145 167,-254 -22,-197 -205,-234 -376,-202 l -108,20 c -22,-153 -62,-332 -245,-420 -48,-22 -102,-35 -157,-39 -55,4 -109,17 -156,39 -183,88 -224,267 -245,420 l -108,-20 c -171,-32 -355,5 -377,202 -12,109 42,250 168,254 z m 0,-1116 c 268,6 486,172 573,429 273,-18 503,130 534,409 26,242 -122,494 -386,500 h -721 -720 c -264,-6 -413,-258 -386,-500 31,-279 261,-427 534,-409 86,-257 305,-423 572,-429 z m 1409,-404 h -1464 l -333,-333 h 1797 z m 223,0 v -555 h -3707 l -45.1971,3473.9555 h 4151 l 45.1971,-2918.9555 z"
     class="fil1" /></g>
  <rect
   y="216.90887"
   x="3284.0659"
   style="clip-rule:evenodd;fill:none;fill-rule:evenodd;stroke-width:0.99999988;image-rendering:optimizeQuality;shape-rendering:geometricPrecision;text-rendering:geometricPrecision"
   class="fil0"
   width="7110.999"
   height="7110.999"
   id="rect7-3" /></g>
 </g>
</svg>