<?xml version="1.0" encoding="UTF-8"?>
<!DOCTYPE svg PUBLIC "-//W3C//DTD SVG 1.1//EN" "http://www.w3.org/Graphics/SVG/1.1/DTD/svg11.dtd">
<!-- Creator: CorelDRAW X7 -->
<svg xmlns="http://www.w3.org/2000/svg" xml:space="preserve" width="0.711063in" height="0.711063in" version="1.1" style="shape-rendering:geometricPrecision; text-rendering:geometricPrecision; image-rendering:optimizeQuality; fill-rule:evenodd; clip-rule:evenodd"
viewBox="0 0 7111 7111"
 xmlns:xlink="http://www.w3.org/1999/xlink">
 <defs>
  <style type="text/css">
   <![CDATA[
    .fil0 {fill:none}
    .fil1 {fill:black}
   ]]>
  </style>
 </defs>
 <g id="Layer_x0020_1">
  <metadata id="CorelCorpID_0Corel-Layer"/>
  <g id="_2846051000176">
   <rect class="fil0" width="7111" height="7111"/>
   <path class="fil1" d="M3408 2989l2001 0 0 1797 -3707 0 0 -1775 0 -687 1041 0 665 665zm147 1298l719 0c126,-4 179,-145 167,-254 -22,-197 -205,-234 -376,-203l-108 20c-22,-152 -62,-332 -245,-419 -48,-22 -102,-35 -157,-39 -55,4 -109,17 -156,39 -183,87 -224,267 -245,419l-108 -20c-171,-31 -355,6 -377,203 -12,109 42,250 168,254l718 0zm0 -1116c268,6 486,172 573,429 273,-18 503,130 534,409 26,242 -122,494 -386,499l-721 1 -720 -1c-264,-5 -413,-257 -386,-499 31,-279 261,-427 534,-409 86,-257 305,-423 572,-429zm-720 -1069l-1355 0 0 2906 4151 0 0 -2241 -444 0 0 -444 -2131 0 -221 -221zm2129 665l-1464 0 -222 -222 1686 0 0 222z"/>
  </g>
 </g>
</svg>
