<?xml version="1.0" encoding="UTF-8"?>
<!DOCTYPE svg PUBLIC "-//W3C//DTD SVG 1.1//EN" "http://www.w3.org/Graphics/SVG/1.1/DTD/svg11.dtd">
<!-- Creator: CorelDRAW X7 -->
<svg xmlns="http://www.w3.org/2000/svg" xml:space="preserve" width="0.711063in" height="0.711063in" version="1.1" style="shape-rendering:geometricPrecision; text-rendering:geometricPrecision; image-rendering:optimizeQuality; fill-rule:evenodd; clip-rule:evenodd"
viewBox="0 0 7111 7111"
 xmlns:xlink="http://www.w3.org/1999/xlink">
 <defs>
  <style type="text/css">
   <![CDATA[
    .fil0 {fill:none}
    .fil1 {fill:black}
   ]]>
  </style>
 </defs>
 <g id="Layer_x0020_1">
  <metadata id="CorelCorpID_0Corel-Layer"/>
  <g id="_2846380461024">
   <rect class="fil0" width="7111" height="7111"/>
   <path class="fil1" d="M1702 2324l1041 0 554 554 2112 0 0 1908 -3707 0 0 -2462zm1853 1899l719 0c126,-3 179,-145 167,-253 -22,-197 -205,-235 -376,-203l-108 20c-22,-152 -62,-332 -245,-419 -48,-23 -102,-36 -157,-39 -55,3 -109,16 -156,39 -183,87 -224,267 -245,419l-108 -20c-171,-32 -355,6 -377,203 -12,108 42,250 168,253l718 0zm0 -1115c268,5 486,172 573,428 273,-17 503,131 534,410 26,241 -122,493 -386,499l-721 1 -720 -1c-264,-6 -413,-258 -386,-499 31,-279 261,-427 534,-410 86,-256 305,-423 572,-428zm-2075 -1006l0 2906 4151 0 0 -2352 -2242 0 -554 -554 -1355 0z"/>
  </g>
 </g>
</svg>
